<svg width="36" height="36" viewBox="0 0 36 36" fill="none" xmlns="http://www.w3.org/2000/svg">
<rect x="0.5" y="0.5" width="35" height="35" rx="17.5" fill="#1A1A1A"/>
<rect x="0.5" y="0.5" width="35" height="35" rx="17.5" stroke="#F3F3F3"/>
<path d="M18 24.5455C14.385 24.5455 11.4545 21.6149 11.4545 18C11.4545 14.385 14.385 11.4545 18 11.4545C21.6149 11.4545 24.5455 14.385 24.5455 18C24.5455 21.6149 21.6149 24.5455 18 24.5455ZM18 22.3636C20.4099 22.3636 22.3636 20.4099 22.3636 18C22.3636 15.59 20.4099 13.6364 18 13.6364C15.59 13.6364 13.6364 15.59 13.6364 18C13.6364 20.4099 15.59 22.3636 18 22.3636ZM16.9091 6H19.0909V9.27273H16.9091V6ZM16.9091 26.7273H19.0909V30H16.9091V26.7273ZM8.74333 10.2861L10.2861 8.74333L12.6003 11.0575L11.0575 12.6003L8.74333 10.2861ZM23.3997 24.9425L24.9425 23.3997L27.2567 25.7139L25.7139 27.2567L23.3997 24.9425ZM25.7139 8.74333L27.2567 10.2861L24.9425 12.6003L23.3997 11.0575L25.7139 8.74333ZM11.0575 23.3997L12.6003 24.9425L10.2861 27.2567L8.74333 25.7139L11.0575 23.3997ZM30 16.9091V19.0909H26.7273V16.9091H30ZM9.27273 16.9091V19.0909H6V16.9091H9.27273Z" fill="white"/>
</svg>
