<svg width="24" height="24" viewBox="0 0 24 24" fill="none" xmlns="http://www.w3.org/2000/svg">
<path d="M5.33409 4.15512C6.3494 3.19898 7.55145 2.45792 8.87555 2C9.60856 2.9637 10.7358 3.58091 12 3.58091C13.2642 3.58091 14.3914 2.9637 15.1245 2C16.4486 2.45792 17.6506 3.19898 18.6659 4.15512C18.2405 5.30442 18.2966 6.63917 18.9282 7.79045C19.5602 8.94239 20.6314 9.66108 21.7906 9.84749C21.9279 10.5424 22 11.2623 22 12C22 12.7376 21.9279 13.4577 21.7906 14.1525C20.6314 14.3389 19.5602 15.0576 18.9282 16.2096C18.2966 17.3608 18.2405 18.6956 18.6659 19.8448C17.6506 20.801 16.4486 21.5421 15.1245 22C14.3914 21.0363 13.2642 20.4191 12 20.4191C10.7358 20.4191 9.60856 21.0363 8.87555 22C7.55145 21.5421 6.3494 20.801 5.33409 19.8448C5.75952 18.6956 5.7034 17.3608 5.0718 16.2096C4.43983 15.0576 3.36862 14.3389 2.20935 14.1525C2.07212 13.4577 2 12.7376 2 12C2 11.2623 2.07212 10.5424 2.20935 9.84749C3.36862 9.66108 4.43983 8.94239 5.0718 7.79045C5.7034 6.63917 5.75952 5.30442 5.33409 4.15512ZM13.5 14.7342C14.9349 13.8623 15.4265 11.9315 14.5981 10.4214C13.7696 8.91137 11.9349 8.39398 10.5 9.26581C9.06512 10.1376 8.5735 12.0685 9.40192 13.5786C10.2304 15.0887 12.0651 15.606 13.5 14.7342Z" fill="#303030"/>
</svg>
