<svg width="28" height="28" viewBox="0 0 28 28" fill="none" xmlns="http://www.w3.org/2000/svg">
<rect x="1" y="1" width="26" height="26" rx="13" fill="#7D7D7D"/>
<rect x="1" y="1" width="26" height="26" rx="13" stroke="white" stroke-width="2"/>
<path d="M11.75 7.25H16.25L17.75 8.75H20.75C21.1642 8.75 21.5 9.08579 21.5 9.5V20C21.5 20.4142 21.1642 20.75 20.75 20.75H7.25C6.83579 20.75 6.5 20.4142 6.5 20V9.5C6.5 9.08579 6.83579 8.75 7.25 8.75H10.25L11.75 7.25ZM14 19.25C16.4853 19.25 18.5 17.2353 18.5 14.75C18.5 12.2647 16.4853 10.25 14 10.25C11.5147 10.25 9.5 12.2647 9.5 14.75C9.5 17.2353 11.5147 19.25 14 19.25ZM14 17.75C12.3431 17.75 11 16.4068 11 14.75C11 13.0932 12.3431 11.75 14 11.75C15.6568 11.75 17 13.0932 17 14.75C17 16.4068 15.6568 17.75 14 17.75Z" fill="white"/>
</svg>
