<svg width="36" height="36" viewBox="0 0 36 36" fill="none" xmlns="http://www.w3.org/2000/svg">
<path d="M23.7834 22.3911L28 26.6076L26.6076 28L22.3911 23.7834C20.875 24.9964 18.9522 25.722 16.861 25.722C11.9697 25.722 8 21.7523 8 16.861C8 11.9697 11.9697 8 16.861 8C21.7523 8 25.722 11.9697 25.722 16.861C25.722 18.9522 24.9964 20.875 23.7834 22.3911ZM21.8081 21.6605C23.012 20.4198 23.7529 18.7273 23.7529 16.861C23.7529 13.0532 20.6688 9.96911 16.861 9.96911C13.0532 9.96911 9.96911 13.0532 9.96911 16.861C9.96911 20.6688 13.0532 23.7529 16.861 23.7529C18.7273 23.7529 20.4198 23.012 21.6605 21.8081L21.8081 21.6605Z" fill="#474040"/>
</svg>
