<svg width="56" height="56" viewBox="0 0 56 56" fill="none" xmlns="http://www.w3.org/2000/svg">
<circle cx="28" cy="28" r="28" fill="#474040"/>
<path d="M22.0251 29.9712C21.7653 30.6695 21.5448 31.3155 21.3476 31.9678C22.4219 31.1876 23.701 30.6923 25.1754 30.508C27.9903 30.1562 30.4906 28.2975 31.7565 25.9626L30.126 24.3332L31.7083 22.7487C32.082 22.3745 32.4556 22.0005 32.8294 21.6268C33.3102 21.1459 33.8533 20.2559 34.4277 18.9751C28.1633 19.9461 24.3275 23.7817 22.0251 29.9712ZM33.2933 24.3315L34.4133 25.4507C33.2933 28.8107 29.9333 32.1707 25.4533 32.7307C22.4645 33.1044 20.5972 35.1577 19.8513 38.8907H17.6133C18.7333 32.1707 20.9733 16.4907 37.7733 16.4907C36.6543 19.8477 35.5353 22.0867 34.4163 23.2077C34.0394 23.5846 33.6664 23.9579 33.2933 24.3315Z" fill="#F3F3F3"/>
</svg>
