<svg width="56" height="56" viewBox="0 0 56 56" fill="none" xmlns="http://www.w3.org/2000/svg">
<circle cx="28" cy="28" r="28" fill="#675959"/>
<path d="M22.3317 30.2768C22.072 30.9751 21.8515 31.6212 21.6542 32.2735C22.7286 31.4933 24.0076 30.998 25.4821 30.8136C28.2969 30.4619 30.7972 28.6032 32.0632 26.2682L30.4327 24.6388L32.0149 23.0544C32.3886 22.6801 32.7623 22.3062 33.136 21.9325C33.6168 21.4516 34.1599 20.5616 34.7344 19.2808C28.47 20.2517 24.6341 24.0873 22.3317 30.2768ZM33.5999 24.6372L34.7199 25.7564C33.5999 29.1164 30.2399 32.4764 25.7599 33.0364C22.7712 33.41 20.9038 35.4633 20.158 39.1964H17.9199C19.0399 32.4764 21.2799 16.7964 38.0799 16.7964C36.9609 20.1534 35.8419 22.3924 34.7229 23.5134C34.3461 23.8902 33.973 24.2636 33.5999 24.6372Z" fill="#F3F3F3"/>
</svg>
